# xmcd CD database file
#
# Track frame offsets:
#	150
#	15827
#	31307
#	44112
#	60912
#	81810
#	95977
#	109137
#	121802
#	136582
#	148757
#	161080
#	174067
#	186625
#
# Disc length: 2647 seconds
#
# Revision: 0
# Processed by: cddbd v1.5.2PL0 Copyright (c) Steve Scherf et al.
# Submitted via: CDex 1.70beta2
#
DISCID=b70a550e
DTITLE=Nat King Cole - The Great Jazz Artist Series
DYEAR=1900
DGENRE=Jazz
TTITLE0=Mona Lisa
TTITLE1=Too Young
TTITLE2=Ramblin' Rose
TTITLE3=(Get Your Kicks On) Route 66
TTITLE4=Sweet Lorraine
TTITLE5=It's Only A Paper Moon
TTITLE6=Nature Boy
TTITLE7=Pretend
TTITLE8=Stardust
TTITLE9=Love Is Many Splendored Thing
TTITLE10=Maria Elena
TTITLE11=Cachito
TTITLE12=Quizas, Quizas, Quizas
TTITLE13=Autumn Leaves
EXTD=
EXTT0=
EXTT1=
EXTT2=
EXTT3=
EXTT4=
EXTT5=
EXTT6=
EXTT7=
EXTT8=
EXTT9=
EXTT10=
EXTT11=
EXTT12=
EXTT13=
PLAYORDER=
